#!OML:ASF G:\JayActor3\Patient Classification 1\Patient 1\Session 5\male.ASF
:FULLY-SPECIFIED
:DEGREES
367
root -32.9811 16.1971 -4.88606 -180.789 84.6933 -198.077
lowerback 32.4984 -3.48282 4.25472
upperback 9.07104 -2.12183 -1.28169
thorax -6.91215 -0.559453 -2.92522
lowerneck -1.2733 -1.22391 2.69605
upperneck -21.4005 -0.5643 1.77948
head -6.29093 -0.296821 0.106721
rclavicle -2.06985e-014 1.25731e-014
rhumerus -30.8168 4.44791 -88.7103
rradius 43.8447
rwrist -4.47654
rhand -20.2054 -9.88606
rfingers 7.12502
rthumb 6.1415 -39.777
lclavicle -2.06985e-014 1.25731e-014
lhumerus -28.8033 1.40482 81.5855
lradius 41.6081
lwrist 25.1765
lhand -19.9254 12.987
lfingers 7.12502
lthumb 6.41181 42.8699
rfemur -64.622 -2.83698 17.9063
rtibia 69.0465
rfoot 10.6005 0.568921
rtoes 1.78712
lfemur -45.3995 15.0206 -18.1879
ltibia 82.479
lfoot 24.9253 -6.44583
ltoes -24.2092
368
root -32.8848 16.2002 -4.86337 -180.937 84.653 -198.115
lowerback 32.6696 -3.44813 4.26353
upperback 9.10026 -2.05644 -1.2785
thorax -6.94086 -0.523937 -2.94644
lowerneck -1.24716 -1.26808 2.70352
upperneck -21.4312 -0.618449 1.80272
head -6.30555 -0.325574 0.11573
rclavicle -1.02374e-014 -2.72335e-014
rhumerus -30.6975 4.67185 -88.651
rradius 44.1012
rwrist -4.52257
rhand -20.1595 -9.91407
rfingers 7.12502
rthumb 6.18583 -39.8038
lclavicle -1.02374e-014 -2.72335e-014
lhumerus -28.8744 1.4181 81.5901
lradius 41.6062
lwrist 25.2297
lhand -20.092 13.0853
lfingers 7.12502
lthumb 6.25102 42.973
rfemur -64.3519 -2.92441 17.8955
rtibia 69.3254
rfoot 11.0265 0.564342
rtoes 2.1269
lfemur -46.424 15.3613 -18.2323
ltibia 83.7381
lfoot 24.6078 -6.70275
ltoes -24.0064
369
root -32.7896 16.203 -4.84174 -181.13 84.6376 -198.174
lowerback 32.8585 -3.40527 4.25134
upperback 9.13563 -1.98587 -1.27901
thorax -6.96856 -0.48536 -2.96217
lowerneck -1.21131 -1.31086 2.7122
upperneck -21.4692 -0.670176 1.82559
head -6.32417 -0.35335 0.124374
rclavicle 3.86139e-014 2.96189e-014
rhumerus -30.571 4.87026 -88.5812
rradius 44.3539
rwrist -4.5506
rhand -20.114 -9.96779
rfingers 7.12502
rthumb 6.22981 -39.8562
lclavicle 3.86139e-014 2.96189e-014
lhumerus -28.9473 1.44853 81.5851
lradius 41.5641
lwrist 25.2592
lhand -20.3295 13.2958
lfingers 7.12502
lthumb 6.02168 43.1903
rfemur -64.0749 -3.03635 17.9234
rtibia 69.6172
rfoot 11.4477 0.523844
rtoes 2.33768
lfemur -47.4666 15.753 -18.3329
ltibia 84.9667
lfoot 24.0569 -6.95494
ltoes -24.0427
370
root -32.6951 16.2051 -4.82086 -181.283 84.6408 -198.177
lowerback 33.055 -3.35688 4.2219
upperback 9.17282 -1.91332 -1.27959
thorax -6.99629 -0.445732 -2.96963
lowerneck -1.16022 -1.35126 2.71712
upperneck -21.5105 -0.717992 1.85166
head -6.34637 -0.379479 0.1346
rclavicle -2.04251e-014 -2.33572e-014
rhumerus -30.4397 5.04388 -88.5037
rradius 44.5924
rwrist -4.56482
rhand -20.0771 -10.0336
rfingers 7.12502
rthumb 6.26535 -39.9209
lclavicle -2.04251e-014 -2.33572e-014
lhumerus -29.0323 1.49219 81.5682
lradius 41.4858
lwrist 25.2592
lhand -20.5857 13.5312
lfingers 7.12502
lthumb 5.77436 43.4325
rfemur -63.7807 -3.15336 17.9766
rtibia 69.9069
rfoot 11.8572 0.502236
rtoes 2.4448
lfemur -48.5414 16.1837 -18.4829
ltibia 86.1519
lfoot 23.3888 -7.16495
ltoes -24.1132
371
root -32.6012 16.2062 -4.80049 -181.36 84.6533 -198.1
lowerback 33.2501 -3.30469 4.17822
upperback 9.20652 -1.84115 -1.27769
thorax -7.02655 -0.406702 -2.96704
lowerneck -1.10269 -1.39064 2.71973
upperneck -21.5389 -0.765053 1.88086
head -6.3655 -0.405666 0.146263
rclavicle 2.127e-014 2.33572e-015
rhumerus -30.311 5.1874 -88.4201
rradius 44.8217
rwrist -4.56853
rhand -20.0469 -10.1181
rfingers 7.12502
rthumb 6.29455 -40.0045
lclavicle 2.127e-014 2.33572e-015
lhumerus -29.1356 1.54556 81.5419
lradius 41.375
lwrist 25.2281
lhand -20.8417 13.7833
lfingers 7.12502
lthumb 5.52717 43.6912
rfemur -63.4709 -3.26654 18.0438
rtibia 70.188
rfoot 12.2471 0.511041
rtoes 2.534
lfemur -49.6578 16.6359 -18.6833
ltibia 87.2767
lfoot 22.6449 -7.35275
ltoes -24.2924
